<mxfile host="app.diagrams.net" modified="2022-07-12T09:50:44.116Z" agent="5.0 (Windows NT 10.0; Win64; x64) AppleWebKit/537.36 (KHTML, like Gecko) Chrome/103.0.0.0 Safari/537.36" etag="rG7Ck7KXLSJNZeoquZXH" version="20.0.4" type="github">
  <diagram id="Pk0o54IrG0XhxF-96bGP" name="Page-1">
    <mxGraphModel dx="868" dy="1582" grid="1" gridSize="10" guides="1" tooltips="1" connect="1" arrows="1" fold="1" page="1" pageScale="1" pageWidth="850" pageHeight="1100" math="0" shadow="0">
      <root>
        <mxCell id="0" />
        <mxCell id="1" parent="0" />
        <mxCell id="_50TLwfLpuQwbmJkiNN4-1" value="" style="shape=cube;whiteSpace=wrap;html=1;boundedLbl=1;backgroundOutline=1;darkOpacity=0.05;darkOpacity2=0.1;size=7;direction=east;flipH=1;fillColor=#ffe6cc;strokeColor=#d79b00;fontStyle=1" vertex="1" parent="1">
          <mxGeometry x="1157.5" y="-147.06" width="30" height="20" as="geometry" />
        </mxCell>
        <mxCell id="_50TLwfLpuQwbmJkiNN4-2" value="" style="shape=cube;whiteSpace=wrap;html=1;boundedLbl=1;backgroundOutline=1;darkOpacity=0.05;darkOpacity2=0.1;size=7;direction=east;flipH=1;fillColor=#f8cecc;strokeColor=#b85450;fontStyle=1" vertex="1" parent="1">
          <mxGeometry x="1157.5" y="-117.06" width="30" height="20" as="geometry" />
        </mxCell>
        <mxCell id="_50TLwfLpuQwbmJkiNN4-3" value="" style="shape=cube;whiteSpace=wrap;html=1;boundedLbl=1;backgroundOutline=1;darkOpacity=0.05;darkOpacity2=0.1;size=7;direction=east;flipH=1;fillColor=#dae8fc;strokeColor=#6c8ebf;fontStyle=1" vertex="1" parent="1">
          <mxGeometry x="1157.5" y="-87.06" width="30" height="20" as="geometry" />
        </mxCell>
        <mxCell id="_50TLwfLpuQwbmJkiNN4-4" value="" style="shape=cube;whiteSpace=wrap;html=1;boundedLbl=1;backgroundOutline=1;darkOpacity=0.05;darkOpacity2=0.1;size=7;direction=east;flipH=1;fillColor=#d5e8d4;strokeColor=#82b366;fontStyle=1" vertex="1" parent="1">
          <mxGeometry x="1157.5" y="-57.06" width="30" height="20" as="geometry" />
        </mxCell>
        <mxCell id="_50TLwfLpuQwbmJkiNN4-5" value="convolutional + ReLU" style="text;html=1;strokeColor=none;fillColor=none;align=left;verticalAlign=middle;whiteSpace=wrap;rounded=0;fontStyle=1" vertex="1" parent="1">
          <mxGeometry x="1198.5" y="-150" width="138" height="23.88" as="geometry" />
        </mxCell>
        <mxCell id="_50TLwfLpuQwbmJkiNN4-6" value="max pooling" style="text;html=1;strokeColor=none;fillColor=none;align=left;verticalAlign=middle;whiteSpace=wrap;rounded=0;fontStyle=1" vertex="1" parent="1">
          <mxGeometry x="1198.5" y="-120" width="138" height="23.88" as="geometry" />
        </mxCell>
        <mxCell id="_50TLwfLpuQwbmJkiNN4-7" value="fully connected + ReLU" style="text;html=1;strokeColor=none;fillColor=none;align=left;verticalAlign=middle;whiteSpace=wrap;rounded=0;fontStyle=1" vertex="1" parent="1">
          <mxGeometry x="1198.5" y="-88.94" width="138" height="23.88" as="geometry" />
        </mxCell>
        <mxCell id="_50TLwfLpuQwbmJkiNN4-8" value="softmax" style="text;html=1;strokeColor=none;fillColor=none;align=left;verticalAlign=middle;whiteSpace=wrap;rounded=0;fontStyle=1" vertex="1" parent="1">
          <mxGeometry x="1197.5" y="-60.94" width="138" height="23.88" as="geometry" />
        </mxCell>
        <mxCell id="_50TLwfLpuQwbmJkiNN4-9" value="170x 230 x&amp;nbsp; 32" style="text;html=1;strokeColor=none;fillColor=none;align=center;verticalAlign=middle;whiteSpace=wrap;rounded=0;rotation=-90;fontStyle=1" vertex="1" parent="1">
          <mxGeometry x="340" y="-200" width="99" height="30" as="geometry" />
        </mxCell>
        <mxCell id="_50TLwfLpuQwbmJkiNN4-50" style="edgeStyle=orthogonalEdgeStyle;rounded=0;orthogonalLoop=1;jettySize=auto;html=1;exitX=0;exitY=0;exitDx=6;exitDy=0;exitPerimeter=0;entryX=0;entryY=0;entryDx=6.5;entryDy=0;entryPerimeter=0;" edge="1" parent="1" source="_50TLwfLpuQwbmJkiNN4-11" target="_50TLwfLpuQwbmJkiNN4-31">
          <mxGeometry relative="1" as="geometry">
            <Array as="points">
              <mxPoint x="260" y="-610" />
              <mxPoint x="352" y="-610" />
            </Array>
          </mxGeometry>
        </mxCell>
        <mxCell id="_50TLwfLpuQwbmJkiNN4-11" value="" style="shape=cube;whiteSpace=wrap;html=1;boundedLbl=1;backgroundOutline=1;darkOpacity=0.05;darkOpacity2=0.1;size=70;direction=east;flipH=1;fillColor=#ffe6cc;strokeColor=#d79b00;" vertex="1" parent="1">
          <mxGeometry x="190" y="-582" width="76" height="220" as="geometry" />
        </mxCell>
        <mxCell id="_50TLwfLpuQwbmJkiNN4-12" style="edgeStyle=orthogonalEdgeStyle;rounded=0;orthogonalLoop=1;jettySize=auto;html=1;entryX=0;entryY=0;entryDx=6.5;entryDy=0;entryPerimeter=0;fontColor=#383838;exitX=0;exitY=0;exitDx=0;exitDy=0;exitPerimeter=0;" edge="1" parent="1" source="_50TLwfLpuQwbmJkiNN4-31" target="_50TLwfLpuQwbmJkiNN4-41">
          <mxGeometry relative="1" as="geometry">
            <mxPoint x="410" y="-583" as="sourcePoint" />
            <Array as="points">
              <mxPoint x="359" y="-610" />
              <mxPoint x="617" y="-610" />
            </Array>
          </mxGeometry>
        </mxCell>
        <mxCell id="_50TLwfLpuQwbmJkiNN4-13" style="edgeStyle=orthogonalEdgeStyle;rounded=0;orthogonalLoop=1;jettySize=auto;html=1;exitX=0;exitY=0;exitDx=85;exitDy=220;exitPerimeter=0;fontColor=#383838;entryX=0;entryY=0;entryDx=43;entryDy=35;entryPerimeter=0;" edge="1" parent="1" source="_50TLwfLpuQwbmJkiNN4-15" target="_50TLwfLpuQwbmJkiNN4-22">
          <mxGeometry relative="1" as="geometry">
            <mxPoint x="280" y="-221.5" as="targetPoint" />
            <Array as="points">
              <mxPoint x="218" y="-255" />
            </Array>
          </mxGeometry>
        </mxCell>
        <mxCell id="_50TLwfLpuQwbmJkiNN4-15" value="" style="shape=cube;whiteSpace=wrap;html=1;boundedLbl=1;backgroundOutline=1;darkOpacity=0.05;darkOpacity2=0.1;size=70;direction=east;flipH=1;fillColor=#ffe6cc;strokeColor=#d79b00;" vertex="1" parent="1">
          <mxGeometry x="203" y="-582" width="100" height="220" as="geometry" />
        </mxCell>
        <mxCell id="_50TLwfLpuQwbmJkiNN4-16" value="512 x 688 x 3&amp;nbsp;" style="text;html=1;strokeColor=none;fillColor=none;align=center;verticalAlign=middle;whiteSpace=wrap;rounded=0;rotation=-90;fontStyle=1" vertex="1" parent="1">
          <mxGeometry x="140" y="-330" width="99" height="30" as="geometry" />
        </mxCell>
        <mxCell id="_50TLwfLpuQwbmJkiNN4-17" value="512 x 688 x 32&amp;nbsp;" style="text;html=1;strokeColor=none;fillColor=none;align=center;verticalAlign=middle;whiteSpace=wrap;rounded=0;rotation=-90;fontStyle=1" vertex="1" parent="1">
          <mxGeometry x="176.5" y="-330" width="99" height="30" as="geometry" />
        </mxCell>
        <mxCell id="_50TLwfLpuQwbmJkiNN4-22" value="" style="shape=cube;whiteSpace=wrap;html=1;boundedLbl=1;backgroundOutline=1;darkOpacity=0.05;darkOpacity2=0.1;size=15;direction=east;flipH=1;fillColor=#ffe6cc;strokeColor=#d79b00;fontStyle=1" vertex="1" parent="1">
          <mxGeometry x="374" y="-290" width="43" height="55" as="geometry" />
        </mxCell>
        <mxCell id="_50TLwfLpuQwbmJkiNN4-23" value="" style="shape=cube;whiteSpace=wrap;html=1;boundedLbl=1;backgroundOutline=1;darkOpacity=0.05;darkOpacity2=0.1;size=30;direction=east;flipH=1;fillColor=#ffe6cc;strokeColor=#FF3399;" vertex="1" parent="1">
          <mxGeometry x="630" y="-147.06" width="77" height="110" as="geometry" />
        </mxCell>
        <mxCell id="_50TLwfLpuQwbmJkiNN4-24" value="" style="shape=cube;whiteSpace=wrap;html=1;boundedLbl=1;backgroundOutline=1;darkOpacity=0.05;darkOpacity2=0.1;size=30;direction=east;flipH=1;fillColor=#ffe6cc;strokeColor=#d79b00;" vertex="1" parent="1">
          <mxGeometry x="677" y="-147.06" width="77" height="110" as="geometry" />
        </mxCell>
        <mxCell id="_50TLwfLpuQwbmJkiNN4-25" value="" style="shape=cube;whiteSpace=wrap;html=1;boundedLbl=1;backgroundOutline=1;darkOpacity=0.05;darkOpacity2=0.1;size=30;direction=east;flipH=1;fillColor=#ffe6cc;strokeColor=#d79b00;" vertex="1" parent="1">
          <mxGeometry x="770" y="-147.06" width="77" height="110" as="geometry" />
        </mxCell>
        <mxCell id="_50TLwfLpuQwbmJkiNN4-26" style="edgeStyle=orthogonalEdgeStyle;rounded=0;orthogonalLoop=1;jettySize=auto;html=1;exitX=0;exitY=0;exitDx=0;exitDy=40;exitPerimeter=0;entryX=0;entryY=0;entryDx=85;entryDy=220;entryPerimeter=0;fontColor=#383838;" edge="1" parent="1" source="_50TLwfLpuQwbmJkiNN4-27">
          <mxGeometry relative="1" as="geometry">
            <mxPoint x="975.5" y="-216.61" as="targetPoint" />
          </mxGeometry>
        </mxCell>
        <mxCell id="_50TLwfLpuQwbmJkiNN4-27" value="" style="shape=cube;whiteSpace=wrap;html=1;boundedLbl=1;backgroundOutline=1;darkOpacity=0.05;darkOpacity2=0.1;size=30;direction=east;flipH=1;fillColor=#ffe6cc;strokeColor=#d79b00;" vertex="1" parent="1">
          <mxGeometry x="857" y="-147.06" width="77" height="110" as="geometry" />
        </mxCell>
        <mxCell id="_50TLwfLpuQwbmJkiNN4-29" value="512 x 688 x 32&amp;nbsp;" style="text;html=1;strokeColor=none;fillColor=none;align=center;verticalAlign=middle;whiteSpace=wrap;rounded=0;rotation=-90;fontStyle=1" vertex="1" parent="1">
          <mxGeometry x="937.5" y="-104.11000000000001" width="99" height="30" as="geometry" />
        </mxCell>
        <mxCell id="_50TLwfLpuQwbmJkiNN4-31" value="" style="shape=cube;whiteSpace=wrap;html=1;boundedLbl=1;backgroundOutline=1;darkOpacity=0.05;darkOpacity2=0.1;size=70;direction=east;flipH=1;fillColor=#ffe6cc;strokeColor=#d79b00;" vertex="1" parent="1">
          <mxGeometry x="275.5" y="-583" width="83" height="220" as="geometry" />
        </mxCell>
        <mxCell id="_50TLwfLpuQwbmJkiNN4-43" style="edgeStyle=orthogonalEdgeStyle;rounded=0;orthogonalLoop=1;jettySize=auto;html=1;exitX=0;exitY=0;exitDx=0;exitDy=20;exitPerimeter=0;entryX=0;entryY=0;entryDx=58.75;entryDy=137;entryPerimeter=0;" edge="1" parent="1" source="_50TLwfLpuQwbmJkiNN4-39" target="_50TLwfLpuQwbmJkiNN4-42">
          <mxGeometry relative="1" as="geometry" />
        </mxCell>
        <mxCell id="_50TLwfLpuQwbmJkiNN4-39" value="" style="shape=cube;whiteSpace=wrap;html=1;boundedLbl=1;backgroundOutline=1;darkOpacity=0.05;darkOpacity2=0.1;size=15;direction=east;flipH=1;fillColor=#ffe6cc;strokeColor=#d79b00;fontStyle=1" vertex="1" parent="1">
          <mxGeometry x="434" y="-290" width="50" height="55" as="geometry" />
        </mxCell>
        <mxCell id="_50TLwfLpuQwbmJkiNN4-40" value="512 x 688 x 8" style="text;html=1;strokeColor=none;fillColor=none;align=center;verticalAlign=middle;whiteSpace=wrap;rounded=0;rotation=-90;fontStyle=1" vertex="1" parent="1">
          <mxGeometry x="220" y="-330" width="99" height="30" as="geometry" />
        </mxCell>
        <mxCell id="_50TLwfLpuQwbmJkiNN4-42" value="" style="shape=cube;whiteSpace=wrap;html=1;boundedLbl=1;backgroundOutline=1;darkOpacity=0.05;darkOpacity2=0.1;size=40;direction=east;flipH=1;fillColor=#ffe6cc;strokeColor=#d79b00;" vertex="1" parent="1">
          <mxGeometry x="530" y="-500" width="77.5" height="137" as="geometry" />
        </mxCell>
        <mxCell id="_50TLwfLpuQwbmJkiNN4-41" value="" style="shape=cube;whiteSpace=wrap;html=1;boundedLbl=1;backgroundOutline=1;darkOpacity=0.05;darkOpacity2=0.1;size=40;direction=east;flipH=1;fillColor=#ffe6cc;strokeColor=#FF3399;" vertex="1" parent="1">
          <mxGeometry x="570" y="-500" width="53" height="137" as="geometry" />
        </mxCell>
        <mxCell id="_50TLwfLpuQwbmJkiNN4-45" value="" style="shape=cube;whiteSpace=wrap;html=1;boundedLbl=1;backgroundOutline=1;darkOpacity=0.05;darkOpacity2=0.1;size=40;direction=east;flipH=1;fillColor=#808080;strokeColor=#d79b00;" vertex="1" parent="1">
          <mxGeometry x="660" y="-499" width="37.5" height="137" as="geometry" />
        </mxCell>
        <mxCell id="_50TLwfLpuQwbmJkiNN4-47" value="324x 458" style="text;html=1;strokeColor=none;fillColor=none;align=center;verticalAlign=middle;whiteSpace=wrap;rounded=0;rotation=-90;fontStyle=1" vertex="1" parent="1">
          <mxGeometry x="519.25" y="-330" width="99" height="30" as="geometry" />
        </mxCell>
        <mxCell id="_50TLwfLpuQwbmJkiNN4-48" value="" style="endArrow=classic;startArrow=classic;html=1;rounded=0;" edge="1" parent="1">
          <mxGeometry width="50" height="50" relative="1" as="geometry">
            <mxPoint x="530" y="-380" as="sourcePoint" />
            <mxPoint x="580" y="-380" as="targetPoint" />
          </mxGeometry>
        </mxCell>
        <mxCell id="_50TLwfLpuQwbmJkiNN4-49" value="64" style="text;html=1;strokeColor=none;fillColor=none;align=center;verticalAlign=middle;whiteSpace=wrap;rounded=0;rotation=0;fontStyle=1" vertex="1" parent="1">
          <mxGeometry x="508.5" y="-406" width="99" height="30" as="geometry" />
        </mxCell>
      </root>
    </mxGraphModel>
  </diagram>
</mxfile>
